<svg xmlns="http://www.w3.org/2000/svg" width="96" height="35" viewBox="0 0 96 35">
    <defs>
        <linearGradient id="a" x1="50%" x2="50%" y1="0%" y2="100%">
            <stop offset="0%" stop-color="#EDE8E1"/>
            <stop offset="37.718%" stop-color="#F0EBE4"/>
            <stop offset="100%" stop-color="#E7E0D9"/>
        </linearGradient>
        <linearGradient id="b" x1="50%" x2="50%" y1="0%" y2="100%">
            <stop offset="0%" stop-color="#F2EEE9"/>
            <stop offset="100%" stop-color="#ECE4DB"/>
        </linearGradient>
    </defs>
    <g fill="none" fill-rule="evenodd">
        <path fill="#F68621" d="M35 18l-8 5V13l8 5zM0 17h27v2H0v-2z"/>
        <g transform="translate(45)">
            <rect width="51" height="35" fill="url(#a)" rx="3"/>
            <path fill="#D6C8BD" d="M0 2.972C0 1.882 1.338 1 3 1h45c1.657 0 3 1.348 3 1.972L28.376 24.837c-1.589 1.535-4.158 1.54-5.752 0L0 2.972z"/>
            <path fill="url(#b)" d="M0 2C0 .895 1.338 0 3 0h45c1.657 0 3 1.345 3 2L27.83 20.626c-1.287 1.035-3.377 1.032-4.66 0L0 2z"/>
        </g>
    </g>
</svg>
