<svg xmlns="http://www.w3.org/2000/svg" width="38" height="41" viewBox="0 0 38 41">
    <defs>
        <linearGradient id="a" x1="50%" x2="50%" y1="0%" y2="100%">
            <stop offset="0%" stop-color="#A6E8A5"/>
            <stop offset="100%" stop-color="#45D18D"/>
        </linearGradient>
    </defs>
    <g fill="none" fill-rule="evenodd">
        <path fill="url(#a)" d="M8 0h22v22H8V0zm11 41L0 22h38L19 41z"/>
        <path fill="#2F6D2E" d="M18.483 27.09v-2.093c-.709-.069-1.354-.236-1.886-.501a5.01 5.01 0 0 1-1.35-.962 4.3 4.3 0 0 1-.858-1.237c-.205-.45-.334-.9-.389-1.35l1.943-.613c.027.327.099.648.214.961.116.314.277.6.481.859.205.259.457.48.757.665.3.184.654.31 1.063.378v-4.274l-.511-.102c-1.05-.218-1.878-.641-2.485-1.268s-.91-1.445-.91-2.454c0-.491.096-.955.286-1.39.191-.437.46-.829.808-1.177.348-.347.76-.637 1.237-.869.478-.232 1.028-.361 1.6-.43V9h1.573l-.003 2.234c.627.082 1.166.238 1.616.47a4.2 4.2 0 0 1 1.124.818c.3.314.536.651.706 1.012.17.362.297.706.378 1.033l-1.84.675a2.384 2.384 0 0 0-.184-.614 2.835 2.835 0 0 0-.389-.634 3.12 3.12 0 0 0-.593-.562 2.378 2.378 0 0 0-.818-.378v4.192l.307.061c1.145.232 2.038.692 2.679 1.38.64.69.961 1.497.961 2.424a3.747 3.747 0 0 1-1.002 2.515 4.064 4.064 0 0 1-1.227.89c-.49.239-1.063.399-1.718.48l.003 2.094h-1.573zm3.513-5.877c0-.436-.157-.835-.47-1.196-.314-.361-.805-.617-1.473-.767v3.947c.668-.123 1.159-.365 1.473-.726.313-.361.47-.78.47-1.258zm-5.42-6.196c0 .436.14.821.42 1.155.28.334.767.57 1.462.706v-3.886c-.6.11-1.063.348-1.39.716-.328.368-.491.805-.491 1.309z"/>
    </g>
</svg>
